HIERARCHY
ROOT Pelvis
{
	OFFSET 0.000000 0.000000 0.000000
	CHANNELS 6 Xposition Yposition Zposition Zrotation Yrotation Xrotation 
	JOINT Left_hip
	{
		OFFSET 0.076090 -0.089427 -0.010735
		CHANNELS 3 Zrotation Yrotation Xrotation
		JOINT Left_knee
		{
			OFFSET 0.030200 -0.359518 -0.003501
			CHANNELS 3 Zrotation Yrotation Xrotation
			JOINT Left_ankle
			{
				OFFSET -0.011005 -0.371022 -0.045888
				CHANNELS 3 Zrotation Yrotation Xrotation
				JOINT Left_foot
				{
					OFFSET 0.023930 -0.052103 0.111084
					CHANNELS 3 Zrotation Yrotation Xrotation
					End Site
					{
						OFFSET 0.000000 0.000000 0.000000
					}
				}
			}
		}
	}
	JOINT Right_hip
	{
		OFFSET -0.073836 -0.088112 -0.007709
		CHANNELS 3 Zrotation Yrotation Xrotation
		JOINT Right_knee
		{
			OFFSET -0.035715 -0.367809 -0.006536
			CHANNELS 3 Zrotation Yrotation Xrotation
			JOINT Right_ankle
			{
				OFFSET 0.013718 -0.371958 -0.043815
				CHANNELS 3 Zrotation Yrotation Xrotation
				JOINT Right_foot
				{
					OFFSET -0.021936 -0.046387 0.114542
					CHANNELS 3 Zrotation Yrotation Xrotation
					End Site
					{
						OFFSET 0.000000 0.000000 0.000000
					}
				}
			}
		}
	}
	JOINT Spine1
	{
		OFFSET -0.001865 0.102064 -0.019455
		CHANNELS 3 Zrotation Yrotation Xrotation
		JOINT Spine2
		{
			OFFSET 0.003082 0.129260 -0.001938
			CHANNELS 3 Zrotation Yrotation Xrotation
			JOINT Spine3
			{
				OFFSET 0.001104 0.048093 0.026561
				CHANNELS 3 Zrotation Yrotation Xrotation
				JOINT Neck
				{
					OFFSET -0.002010 0.204222 -0.047183
					CHANNELS 3 Zrotation Yrotation Xrotation
					JOINT Head
					{
						OFFSET 0.005050 0.063649 0.048489
						CHANNELS 3 Zrotation Yrotation Xrotation
						End Site
						{
							OFFSET 0.000000 0.000000 0.000000
						}
					}
				}
				JOINT Left_collar
				{
					OFFSET 0.072979 0.114065 -0.031633
					CHANNELS 3 Zrotation Yrotation Xrotation
					JOINT Left_shoulder
					{
						OFFSET 0.083419 0.032092 -0.006530
						CHANNELS 3 Zrotation Yrotation Xrotation
						JOINT Left_elbow
						{
							OFFSET 0.239393 -0.012014 -0.025060
							CHANNELS 3 Zrotation Yrotation Xrotation
							JOINT Left_wrist
							{
								OFFSET 0.227297 0.008116 0.000384
								CHANNELS 3 Zrotation Yrotation Xrotation
								JOINT Left_palm
								{
									OFFSET 0.074607 -0.009248 -0.012277
									CHANNELS 3 Zrotation Yrotation Xrotation
									End Site
									{
										OFFSET 0.000000 0.000000 0.000000
									}
								}
							}
						}
					}
				}
				JOINT Right_collar
				{
					OFFSET -0.074980 0.111880 -0.037894
					CHANNELS 3 Zrotation Yrotation Xrotation
					JOINT Right_shoulder
					{
						OFFSET -0.087565 0.034353 -0.009323
						CHANNELS 3 Zrotation Yrotation Xrotation
						JOINT Right_elbow
						{
							OFFSET -0.236838 -0.013719 -0.019794
							CHANNELS 3 Zrotation Yrotation Xrotation
							JOINT Right_wrist
							{
								OFFSET -0.235053 0.006433 -0.003853
								CHANNELS 3 Zrotation Yrotation Xrotation
								JOINT Right_palm
								{
									OFFSET -0.075499 -0.006894 -0.009792
									CHANNELS 3 Zrotation Yrotation Xrotation
									End Site
									{
										OFFSET 0.000000 0.000000 0.000000
									}
								}
							}
						}
					}
				}
			}
		}
	}
}
MOTION
Frames: 6
Frame Time: 0.100000
-0.033147 0.032073 -0.118547 177.655609 26.920849 -29.078905 -8.592766 1.259191 15.411080 -2.726193 -8.668934 6.464633 0.626123 13.948774 -9.481623 2.954877 7.580925 -8.132201 9.663348 -0.251660 -8.650218 1.697381 -7.981253 7.828398 12.667803 -21.329968 -2.710027 -20.118227 16.105403 -4.021420 -0.460862 -1.778709 16.300724 -0.111708 2.167831 9.449439 1.283057 -1.713431 9.931015 -3.403850 24.878495 13.285172 -9.303799 23.519946 16.122364 -15.824662 11.298443 7.307301 -45.105177 8.471721 13.163045 -61.823249 -78.039721 79.093559 7.474461 -11.423275 -16.869303 -4.486190 -4.125024 -9.664874 18.526001 -4.115725 5.697132 43.266990 -6.004541 22.650370 22.799169 67.122903 26.657242 -7.682827 10.318000 -15.130477 11.910385 5.310434 -5.929104 
-0.029089 0.026058 -0.122569 174.424882 27.769960 -28.373821 -4.573827 0.739545 12.693487 -3.510460 -9.219886 6.958863 -2.098155 12.520445 -10.505410 5.464369 5.525916 -6.281213 5.092247 -0.802067 -8.687357 3.253232 -4.169634 -6.623758 16.190147 -17.357428 0.053368 -21.774401 14.389091 -2.278461 -0.283622 -0.682975 16.298527 0.310953 1.179516 10.001607 1.771137 -1.572388 9.745509 -3.433007 24.463987 12.982304 -7.704518 22.322990 16.143431 -16.785438 9.508692 8.021686 -45.680898 8.726866 15.592724 -49.163170 -72.275942 62.954861 14.439625 -13.784618 -18.584657 -7.525048 -5.112607 -9.571277 19.041271 -3.420948 6.379419 40.851529 -3.643776 22.121283 24.376027 67.161509 28.086652 -12.889579 12.229031 -12.447379 14.073203 6.816116 -8.065404 
-0.023816 0.017140 -0.123365 172.087072 27.822151 -27.647067 -0.369600 1.828477 11.651163 -4.472470 -10.348415 4.785979 -4.311283 10.763835 -9.215826 8.066433 5.970862 -7.940494 0.205600 -2.237793 -11.631937 2.907298 -2.491489 1.059057 19.183576 -16.433332 2.643854 -24.816436 13.691249 -5.822011 0.116648 -0.413859 15.937589 -0.074564 1.894973 9.986275 1.438809 -1.240922 9.466009 -3.657818 23.073858 13.115367 -6.513100 21.949463 16.856617 -18.304791 8.037318 7.816070 -47.472870 6.219781 16.254709 -40.322325 -69.513234 52.468934 24.055376 -13.269283 -17.061124 -9.703812 -6.163480 -10.741444 18.785318 -2.874833 7.498272 40.265125 -4.273344 22.116338 25.659181 67.508695 27.810139 -20.934725 12.792628 -11.245530 15.604922 7.810118 -10.200820 
-0.017364 0.009326 -0.117766 169.384506 29.227453 -27.312574 2.516069 1.455552 9.776901 -4.457365 -11.796698 4.469658 -6.288768 9.980744 -8.356681 11.280065 6.875992 -9.666369 -3.036922 -1.897216 -11.548777 1.775716 0.269979 13.281195 19.338763 -17.230683 0.719690 -25.824310 12.441804 -8.447416 0.159406 -0.185932 14.967450 0.113560 1.571783 9.908453 0.964546 -1.678506 9.072573 -3.434337 21.938769 12.617164 -6.458313 21.176229 17.946401 -19.270283 6.879602 7.825231 -48.405106 3.482303 16.600689 -37.264574 -68.556456 50.017868 24.247237 -13.594206 -16.242321 -9.285010 -5.591493 -10.259004 18.757672 -3.200609 7.011937 39.952171 -4.827001 22.412094 23.661157 69.861499 27.698260 -20.547685 14.037508 -8.790173 13.794332 7.108690 -9.806516 
-0.012507 0.003148 -0.104771 167.788467 29.530713 -26.108631 4.686782 0.838085 8.674633 -4.375757 -12.544175 2.984318 -7.359140 10.074498 -7.806906 12.895864 7.856702 -9.942645 -3.648052 0.352464 -7.893126 2.463663 4.889197 18.027388 17.813634 -15.088455 -1.941517 -22.767420 11.022383 -8.008322 0.228351 -0.044390 13.116971 -0.115260 1.825662 9.684585 0.401066 -1.371442 8.177904 -2.762131 20.953830 13.056705 -6.681932 19.934277 18.971806 -21.071968 6.073038 7.424155 -48.409941 1.939262 16.683588 -26.407410 -66.335822 38.167064 20.802772 -13.840342 -14.793964 -8.209628 -4.165700 -10.424935 19.306991 -1.915687 7.499239 39.746256 -4.198224 24.020871 27.403156 67.178306 30.697848 -16.392032 13.194646 -12.514367 11.830120 5.598030 -8.853236 
-0.008314 -0.000027 -0.089947 167.467179 30.130803 -23.873042 5.978122 0.334281 6.978685 -4.688302 -11.904384 2.078968 -7.835686 9.039503 -7.470411 12.744457 8.004177 -9.358423 -3.922160 -0.619332 -0.915556 1.787465 6.313024 9.313488 15.740248 -13.041427 -4.316387 -19.036246 9.423763 -5.492106 0.177625 0.648125 10.920983 -0.455753 1.611805 9.039545 0.458468 -1.017173 7.765274 -2.810784 20.055417 13.364191 -6.857446 18.564119 19.169455 -21.472676 7.142045 6.995669 -49.958815 1.779785 16.564121 -21.008427 -65.115296 33.206098 18.922068 -13.561739 -16.433241 -7.416356 -3.137851 -9.162699 19.480948 -2.059712 7.706665 40.502622 -2.909458 23.856635 26.723229 64.116141 29.374798 -14.562765 11.961940 -16.075692 11.081589 4.944784 -7.884852 
